<?xml version="1.0" standalone="no"?>
<!DOCTYPE svg PUBLIC "-//W3C//DTD SVG 20010904//EN"
 "http://www.w3.org/TR/2001/REC-SVG-20010904/DTD/svg10.dtd">
<svg version="1.0" xmlns="http://www.w3.org/2000/svg"
 width="1045.000000pt" height="538.000000pt" viewBox="0 0 1045.000000 538.000000"
 preserveAspectRatio="xMidYMid meet">

<g transform="translate(0.000000,538.000000) scale(0.100000,-0.100000)"
fill="#000000" stroke="none">
<path d="M140 2716 c0 -1939 3 -2435 13 -2437 6 -2 2263 -3 5015 -1 l5002 2 0
2435 0 2435 -5015 0 -5015 0 0 -2434z m9989 133 c0 -971 -2 -1935 -6 -2142
l-6 -377 -4964 0 -4963 0 0 2385 0 2385 4963 2 4962 3 6 -245 c3 -135 7 -1040
8 -2011z"/>
<path d="M290 2713 l0 -2288 4865 3 4865 2 0 2285 0 2285 -4865 0 -4865 0 0
-2287z m9685 2 l0 -2235 -4817 0 -4818 0 0 2235 0 2235 4818 0 4817 0 0 -2235z"/>
<path d="M5660 3850 c-17 -34 -33 -46 -113 -84 -50 -24 -105 -48 -122 -52
l-30 -7 22 22 c13 12 20 28 16 36 -9 24 -73 53 -147 66 -82 14 -143 0 -192
-43 -19 -17 -135 -199 -275 -433 -133 -223 -244 -403 -247 -401 -2 3 5 58 17
123 29 162 91 599 91 637 0 72 -79 134 -197 156 -80 14 -106 7 -126 -35 -20
-42 -65 -71 -177 -115 -200 -78 -265 -129 -277 -218 -11 -82 100 -249 160
-240 19 3 23 11 28 69 8 96 39 142 160 240 56 44 103 79 104 77 2 -2 0 -35 -6
-73 -5 -39 -30 -236 -55 -440 -60 -491 -95 -681 -153 -836 -70 -185 -193 -266
-274 -181 -41 43 -57 93 -57 181 0 107 27 178 93 248 27 29 54 53 60 53 5 0
25 9 43 21 32 20 33 21 18 44 -23 35 -92 65 -149 65 -97 0 -180 -66 -239 -189
-28 -60 -31 -75 -31 -166 0 -88 3 -107 27 -157 36 -77 73 -122 134 -163 124
-83 290 -99 409 -40 121 61 199 172 265 376 33 101 65 163 79 155 4 -3 76
-142 159 -308 194 -388 279 -519 403 -619 105 -85 206 -101 315 -49 63 31 110
76 138 134 8 17 11 35 7 39 -5 5 -38 14 -74 22 -79 16 -111 32 -199 97 -114
84 -237 234 -398 486 -47 73 -118 182 -157 243 -40 61 -73 117 -73 124 0 14
101 151 410 553 l155 202 19 -42 c25 -57 69 -112 110 -137 48 -30 56 -27 56
22 0 63 25 136 61 180 35 43 197 172 205 164 8 -8 -30 -249 -96 -605 -111
-600 -133 -848 -85 -942 24 -48 72 -98 117 -121 79 -41 97 -20 98 111 0 52 5
129 11 170 5 41 14 104 18 140 17 133 121 655 212 1060 36 160 57 276 53 292
-13 63 -137 128 -244 128 -59 0 -60 0 -80 -40z"/>
<path d="M3075 3829 c-22 -4 -74 -8 -116 -8 -42 -1 -166 -12 -275 -26 -720
-92 -1024 -126 -1137 -125 -28 1 -69 7 -89 14 -49 18 -60 5 -61 -72 -1 -136
80 -162 428 -142 99 5 201 13 227 16 l47 6 -4 -48 c-14 -134 -38 -338 -61
-509 -79 -591 -90 -775 -54 -850 34 -72 96 -125 145 -125 40 0 45 11 45 95 0
149 31 365 136 940 64 351 76 448 60 491 -8 21 -5 22 86 28 284 17 288 17 288
6 0 -7 -20 -35 -45 -63 -91 -104 -188 -341 -236 -577 -19 -96 -23 -146 -24
-300 0 -164 3 -194 23 -265 45 -155 125 -262 243 -325 148 -78 301 -80 449 -6
200 101 359 377 436 758 21 106 28 171 32 322 6 255 -16 407 -78 539 -77 163
-284 264 -465 226z m101 -114 c44 -34 97 -146 120 -255 26 -118 26 -495 1
-655 -76 -485 -209 -749 -384 -763 -54 -5 -54 -4 -102 45 -57 59 -77 110 -92
237 -21 173 16 481 76 637 12 32 12 39 -6 65 -31 47 -57 143 -63 229 l-5 80
14 -64 c44 -192 166 -313 283 -281 80 21 188 117 180 159 -2 11 -18 17 -53 19
-64 4 -104 34 -138 104 -43 89 -43 90 12 150 l50 53 29 -17 c39 -23 38 -23 51
13 22 63 13 146 -23 232 -15 34 -15 37 0 37 10 0 32 -11 50 -25z"/>
<path d="M6549 3825 c-25 -13 -26 -20 -38 -147 -59 -636 -196 -1306 -306
-1494 -37 -63 -89 -104 -132 -104 -28 0 -43 8 -73 38 -84 84 -82 263 3 388 29
43 63 69 157 124 13 7 11 13 -10 35 -49 53 -128 74 -200 55 -61 -16 -133 -88
-176 -175 -33 -66 -35 -78 -36 -166 0 -189 83 -311 261 -381 42 -16 78 -22
146 -22 81 0 96 3 156 32 125 60 212 182 273 384 43 142 99 391 134 603 l9 50
11 -40 c23 -81 45 -315 47 -499 l3 -190 26 -19 c33 -24 119 -33 175 -17 95 25
205 179 362 505 44 92 82 165 85 163 2 -3 -4 -65 -15 -139 -33 -223 -61 -491
-64 -590 -2 -89 0 -97 29 -149 40 -69 89 -110 144 -117 54 -8 60 2 60 97 0
154 59 555 155 1065 104 550 106 565 77 611 -37 58 -188 110 -264 91 -33 -9
-34 -12 -208 -472 -96 -257 -285 -695 -299 -695 -4 0 -13 42 -20 93 -39 284
-92 552 -162 826 -43 165 -58 202 -100 233 -49 37 -162 49 -210 23z"/>
<path d="M8345 3826 c-122 -29 -216 -104 -267 -211 -15 -33 -28 -65 -28 -71 0
-6 -25 -42 -55 -80 -181 -226 -300 -679 -265 -1008 23 -224 91 -354 234 -447
189 -124 429 -100 600 60 158 148 280 430 332 766 18 121 18 455 0 560 -17 95
-45 180 -80 239 -90 154 -291 236 -471 192z m128 -115 c45 -40 81 -110 107
-206 27 -102 38 -399 21 -589 -35 -398 -163 -754 -304 -843 -199 -125 -330
121 -282 532 16 134 56 329 77 369 8 14 4 30 -16 65 -36 67 -56 154 -55 236
l2 70 7 -60 c25 -202 164 -335 303 -289 65 22 157 108 157 147 0 26 -2 27 -52
27 -46 0 -58 5 -87 32 -36 33 -81 119 -81 154 0 12 7 27 15 34 9 7 30 30 46
52 l31 38 -24 20 c-12 11 -32 22 -43 26 -40 13 -44 22 -29 71 40 132 130 181
207 114z"/>
</g>
</svg>
